STARTFONT 2.1
FONT -FontForge-Titillium Web-Bold-R-Normal--16-150-75-75-P-80-ISO10646-1
SIZE 15 75 75
FONTBOUNDINGBOX 21 23 -4 -5
COMMENT "Generated by fontforge, http://fontforge.sourceforge.net"
COMMENT "Copyright (c) 2009-2011 by Accademia di Belle Arti di Urbino and students of MA course of Visual design. Some rights reserved."
STARTPROPERTIES 40
FOUNDRY "FontForge"
FAMILY_NAME "Titillium Web"
WEIGHT_NAME "Bold"
SLANT "R"
SETWIDTH_NAME "Normal"
ADD_STYLE_NAME ""
PIXEL_SIZE 16
POINT_SIZE 150
RESOLUTION_X 75
RESOLUTION_Y 75
SPACING "P"
AVERAGE_WIDTH 80
CHARSET_REGISTRY "ISO10646"
CHARSET_ENCODING "1"
FONTNAME_REGISTRY ""
CHARSET_COLLECTIONS "ISO8859-2 ISO8859-9 ISO8859-4 ISO10646-1"
FONT_NAME "TitilliumWeb-Bold"
FACE_NAME "Titillium Web Bold"
COPYRIGHT "Copyright (c) 2009-2011 by Accademia di Belle Arti di Urbino and students of MA course of Visual design. Some rights reserved."
FONT_VERSION "1.002;PS 57.000;hotconv 1.0.70;makeotf.lib2.5.55311"
FONT_ASCENT 13
FONT_DESCENT 3
UNDERLINE_POSITION -2
UNDERLINE_THICKNESS 1
X_HEIGHT 7
CAP_HEIGHT 10
RAW_ASCENT 800
RAW_DESCENT 200
NORM_SPACE 4
RELATIVE_WEIGHT 70
RELATIVE_SETWIDTH 50
SUPERSCRIPT_X 0
SUPERSCRIPT_Y 5
SUPERSCRIPT_SIZE 9
SUBSCRIPT_X 0
SUBSCRIPT_Y 1
SUBSCRIPT_SIZE 9
FIGURE_WIDTH 9
AVG_LOWERCASE_WIDTH 79
AVG_UPPERCASE_WIDTH 94
ENDPROPERTIES
CHARS 410
STARTCHAR space
ENCODING 32
SWIDTH 220 0
DWIDTH 4 0
BBX 1 1 0 0
BITMAP
00
ENDCHAR
STARTCHAR exclam
ENCODING 33
SWIDTH 280 0
DWIDTH 4 0
BBX 2 11 1 0
BITMAP
C0
C0
C0
C0
C0
C0
C0
00
C0
C0
C0
ENDCHAR
STARTCHAR quotedbl
ENCODING 34
SWIDTH 411 0
DWIDTH 7 0
BBX 5 4 1 7
BITMAP
D8
D8
D8
D8
ENDCHAR
STARTCHAR numbersign
ENCODING 35
SWIDTH 560 0
DWIDTH 9 0
BBX 9 11 0 0
BITMAP
3600
3600
3600
FF80
FF80
3600
3600
FF80
FF80
3600
3600
ENDCHAR
STARTCHAR dollar
ENCODING 36
SWIDTH 560 0
DWIDTH 9 0
BBX 7 15 1 -2
BITMAP
08
08
3C
FE
D8
D0
F0
7C
1E
16
16
FE
FC
20
20
ENDCHAR
STARTCHAR percent
ENCODING 37
SWIDTH 560 0
DWIDTH 9 0
BBX 9 12 0 -1
BITMAP
6200
F600
F400
F400
6C00
0800
0800
1F00
1580
1780
3700
1000
ENDCHAR
STARTCHAR ampersand
ENCODING 38
SWIDTH 701 0
DWIDTH 11 0
BBX 10 11 1 0
BITMAP
7E00
7600
6600
6600
3C00
F980
CD80
C780
C380
FFC0
7C80
ENDCHAR
STARTCHAR quotesingle
ENCODING 39
SWIDTH 239 0
DWIDTH 4 0
BBX 2 4 1 7
BITMAP
C0
C0
C0
C0
ENDCHAR
STARTCHAR parenleft
ENCODING 40
SWIDTH 308 0
DWIDTH 5 0
BBX 4 14 1 -2
BITMAP
70
60
E0
C0
C0
C0
C0
C0
C0
C0
C0
E0
60
70
ENDCHAR
STARTCHAR parenright
ENCODING 41
SWIDTH 308 0
DWIDTH 5 0
BBX 4 14 0 -2
BITMAP
E0
60
70
70
30
30
30
30
30
30
30
70
60
E0
ENDCHAR
STARTCHAR asterisk
ENCODING 42
SWIDTH 425 0
DWIDTH 7 0
BBX 5 6 1 6
BITMAP
20
B0
E0
78
E0
B0
ENDCHAR
STARTCHAR plus
ENCODING 43
SWIDTH 560 0
DWIDTH 9 0
BBX 7 8 1 0
BITMAP
30
30
30
FE
FE
30
30
30
ENDCHAR
STARTCHAR comma
ENCODING 44
SWIDTH 263 0
DWIDTH 4 0
BBX 3 4 0 -2
BITMAP
60
60
60
C0
ENDCHAR
STARTCHAR hyphen
ENCODING 45
SWIDTH 408 0
DWIDTH 7 0
BBX 5 2 1 3
BITMAP
F8
F8
ENDCHAR
STARTCHAR period
ENCODING 46
SWIDTH 256 0
DWIDTH 4 0
BBX 2 3 1 0
BITMAP
C0
C0
C0
ENDCHAR
STARTCHAR slash
ENCODING 47
SWIDTH 466 0
DWIDTH 7 0
BBX 7 12 0 -1
BITMAP
06
0C
0C
1C
18
18
30
30
70
60
E0
20
ENDCHAR
STARTCHAR zero
ENCODING 48
SWIDTH 560 0
DWIDTH 9 0
BBX 9 11 0 0
BITMAP
1C00
7E00
6300
6300
E380
E380
E380
E300
6300
7F00
3E00
ENDCHAR
STARTCHAR one
ENCODING 49
SWIDTH 560 0
DWIDTH 9 0
BBX 6 11 1 0
BITMAP
0C
3C
FC
7C
1C
1C
1C
1C
1C
1C
1C
ENDCHAR
STARTCHAR two
ENCODING 50
SWIDTH 560 0
DWIDTH 9 0
BBX 7 11 1 0
BITMAP
78
FC
0E
0E
0E
0C
18
30
60
FE
FE
ENDCHAR
STARTCHAR three
ENCODING 51
SWIDTH 560 0
DWIDTH 9 0
BBX 7 11 1 0
BITMAP
78
FC
0E
0E
0C
7C
7E
06
06
FE
FC
ENDCHAR
STARTCHAR four
ENCODING 52
SWIDTH 560 0
DWIDTH 9 0
BBX 7 11 1 0
BITMAP
38
30
70
60
6C
EC
CC
FE
FE
0C
0C
ENDCHAR
STARTCHAR five
ENCODING 53
SWIDTH 560 0
DWIDTH 9 0
BBX 7 11 1 0
BITMAP
FE
FE
C0
C0
F8
FE
0E
06
06
FE
FC
ENDCHAR
STARTCHAR six
ENCODING 54
SWIDTH 560 0
DWIDTH 9 0
BBX 7 11 1 0
BITMAP
3C
7E
E0
C0
FC
FE
C6
C6
C6
FE
7C
ENDCHAR
STARTCHAR seven
ENCODING 55
SWIDTH 560 0
DWIDTH 9 0
BBX 7 11 1 0
BITMAP
FE
FE
06
0E
0C
1C
18
18
30
30
60
ENDCHAR
STARTCHAR eight
ENCODING 56
SWIDTH 560 0
DWIDTH 9 0
BBX 9 11 0 0
BITMAP
1C00
7F00
6300
6300
6700
3E00
7F00
6300
E380
7F00
7E00
ENDCHAR
STARTCHAR nine
ENCODING 57
SWIDTH 560 0
DWIDTH 9 0
BBX 8 11 0 0
BITMAP
1C
7E
67
E3
E3
7F
3F
03
03
7F
7E
ENDCHAR
STARTCHAR colon
ENCODING 58
SWIDTH 256 0
DWIDTH 4 0
BBX 2 7 1 0
BITMAP
C0
C0
00
00
C0
C0
C0
ENDCHAR
STARTCHAR semicolon
ENCODING 59
SWIDTH 279 0
DWIDTH 4 0
BBX 4 9 0 -2
BITMAP
60
60
00
00
10
60
60
60
C0
ENDCHAR
STARTCHAR less
ENCODING 60
SWIDTH 560 0
DWIDTH 9 0
BBX 7 8 1 0
BITMAP
02
0E
7C
F0
F0
7C
0E
02
ENDCHAR
STARTCHAR equal
ENCODING 61
SWIDTH 560 0
DWIDTH 9 0
BBX 7 6 1 1
BITMAP
FE
FE
00
00
FE
FE
ENDCHAR
STARTCHAR greater
ENCODING 62
SWIDTH 560 0
DWIDTH 9 0
BBX 7 8 1 0
BITMAP
80
E0
7C
1E
1E
7C
E0
80
ENDCHAR
STARTCHAR question
ENCODING 63
SWIDTH 437 0
DWIDTH 7 0
BBX 6 11 0 0
BITMAP
FC
7C
0C
0C
1C
38
30
30
30
30
30
ENDCHAR
STARTCHAR at
ENCODING 64
SWIDTH 973 0
DWIDTH 16 0
BBX 14 15 1 -3
BITMAP
0780
1FF0
7878
6018
E7CC
CFCC
CCCC
CCCC
CCCC
CCCC
CFFC
E778
6000
7F80
1F80
ENDCHAR
STARTCHAR A
ENCODING 65
SWIDTH 602 0
DWIDTH 10 0
BBX 9 11 0 0
BITMAP
1E00
3E00
3600
3300
3300
3300
6300
7F80
7F80
6180
E180
ENDCHAR
STARTCHAR B
ENCODING 66
SWIDTH 609 0
DWIDTH 10 0
BBX 8 11 1 0
BITMAP
FE
FF
C7
C3
C7
FE
C7
C3
C3
FF
FE
ENDCHAR
STARTCHAR C
ENCODING 67
SWIDTH 543 0
DWIDTH 9 0
BBX 7 11 1 0
BITMAP
7E
FE
E0
C0
C0
C0
C0
C0
C0
FE
7E
ENDCHAR
STARTCHAR D
ENCODING 68
SWIDTH 638 0
DWIDTH 10 0
BBX 8 11 1 0
BITMAP
FC
FF
C3
C3
C3
C3
C3
C3
C3
FF
FE
ENDCHAR
STARTCHAR E
ENCODING 69
SWIDTH 554 0
DWIDTH 9 0
BBX 7 11 1 0
BITMAP
FE
FE
C0
C0
C0
FC
C0
C0
C0
FE
FE
ENDCHAR
STARTCHAR F
ENCODING 70
SWIDTH 531 0
DWIDTH 9 0
BBX 7 11 1 0
BITMAP
FE
FE
C0
C0
C0
FC
FC
C0
C0
C0
C0
ENDCHAR
STARTCHAR G
ENCODING 71
SWIDTH 611 0
DWIDTH 10 0
BBX 8 11 1 0
BITMAP
3F
7F
E0
C0
C0
C7
C7
C3
C3
FF
7F
ENDCHAR
STARTCHAR H
ENCODING 72
SWIDTH 677 0
DWIDTH 11 0
BBX 9 11 1 0
BITMAP
C380
C380
C380
C380
C380
FF80
C380
C380
C380
C380
C380
ENDCHAR
STARTCHAR I
ENCODING 73
SWIDTH 286 0
DWIDTH 5 0
BBX 2 11 1 0
BITMAP
C0
C0
C0
C0
C0
C0
C0
C0
C0
C0
C0
ENDCHAR
STARTCHAR J
ENCODING 74
SWIDTH 302 0
DWIDTH 5 0
BBX 4 12 0 -1
BITMAP
30
30
30
30
30
30
30
30
30
70
F0
E0
ENDCHAR
STARTCHAR K
ENCODING 75
SWIDTH 593 0
DWIDTH 9 0
BBX 8 11 1 0
BITMAP
C3
C7
C6
CE
CC
FC
FC
CE
C6
C7
C7
ENDCHAR
STARTCHAR L
ENCODING 76
SWIDTH 472 0
DWIDTH 8 0
BBX 6 11 1 0
BITMAP
C0
C0
C0
C0
C0
C0
C0
C0
C0
FC
FC
ENDCHAR
STARTCHAR M
ENCODING 77
SWIDTH 858 0
DWIDTH 14 0
BBX 12 11 1 0
BITMAP
F0F0
F1F0
F9F0
D9F0
D9F0
DB70
CB70
CF70
CF70
CE70
C670
ENDCHAR
STARTCHAR N
ENCODING 78
SWIDTH 693 0
DWIDTH 11 0
BBX 9 11 1 0
BITMAP
F180
F180
D980
D980
D980
C980
CD80
CD80
C580
C780
C780
ENDCHAR
STARTCHAR O
ENCODING 79
SWIDTH 652 0
DWIDTH 10 0
BBX 9 11 1 0
BITMAP
3E00
7F00
E300
C380
C380
C380
C380
C380
C300
FF00
7E00
ENDCHAR
STARTCHAR P
ENCODING 80
SWIDTH 589 0
DWIDTH 9 0
BBX 8 11 1 0
BITMAP
FC
FE
C7
C3
C3
C7
FE
FC
C0
C0
C0
ENDCHAR
STARTCHAR Q
ENCODING 81
SWIDTH 652 0
DWIDTH 10 0
BBX 9 14 1 -3
BITMAP
3E00
7F00
E300
C380
C380
C380
C380
C380
C300
FF00
7E00
0700
0300
0200
ENDCHAR
STARTCHAR R
ENCODING 82
SWIDTH 620 0
DWIDTH 10 0
BBX 8 11 1 0
BITMAP
FC
FF
C3
C3
C3
FF
FE
C6
C6
C7
C3
ENDCHAR
STARTCHAR S
ENCODING 83
SWIDTH 544 0
DWIDTH 9 0
BBX 7 11 1 0
BITMAP
7E
FE
C0
C0
F0
7C
1E
06
06
FE
FC
ENDCHAR
STARTCHAR T
ENCODING 84
SWIDTH 526 0
DWIDTH 8 0
BBX 8 11 0 0
BITMAP
FF
FF
18
18
18
18
18
18
18
18
18
ENDCHAR
STARTCHAR U
ENCODING 85
SWIDTH 654 0
DWIDTH 10 0
BBX 8 11 1 0
BITMAP
C3
C3
C3
C3
C3
C3
C3
C3
E3
7F
7E
ENDCHAR
STARTCHAR V
ENCODING 86
SWIDTH 603 0
DWIDTH 10 0
BBX 9 11 0 0
BITMAP
E180
6180
6180
6380
7300
3300
3300
3300
3600
3E00
1E00
ENDCHAR
STARTCHAR W
ENCODING 87
SWIDTH 930 0
DWIDTH 15 0
BBX 15 11 0 0
BITMAP
E38E
638C
638C
668C
66CC
66DC
36D8
34D8
3C78
3C78
3C78
ENDCHAR
STARTCHAR X
ENCODING 88
SWIDTH 569 0
DWIDTH 9 0
BBX 9 11 0 0
BITMAP
E380
6300
7700
3600
1C00
1C00
1C00
3600
3600
6300
E380
ENDCHAR
STARTCHAR Y
ENCODING 89
SWIDTH 557 0
DWIDTH 9 0
BBX 9 11 0 0
BITMAP
E380
6300
7700
3600
3E00
1C00
1C00
1C00
1C00
1C00
1C00
ENDCHAR
STARTCHAR Z
ENCODING 90
SWIDTH 532 0
DWIDTH 9 0
BBX 7 11 1 0
BITMAP
FE
FE
0E
1C
18
38
70
60
E0
FE
FE
ENDCHAR
STARTCHAR bracketleft
ENCODING 91
SWIDTH 355 0
DWIDTH 6 0
BBX 4 14 1 -2
BITMAP
F0
F0
C0
C0
C0
C0
C0
C0
C0
C0
C0
C0
F0
F0
ENDCHAR
STARTCHAR backslash
ENCODING 92
SWIDTH 498 0
DWIDTH 8 0
BBX 6 12 1 -1
BITMAP
C0
C0
E0
60
70
30
38
18
18
0C
0C
08
ENDCHAR
STARTCHAR bracketright
ENCODING 93
SWIDTH 355 0
DWIDTH 6 0
BBX 4 14 1 -2
BITMAP
F0
F0
70
70
70
70
70
70
70
70
70
70
F0
F0
ENDCHAR
STARTCHAR asciicircum
ENCODING 94
SWIDTH 560 0
DWIDTH 9 0
BBX 8 6 0 5
BITMAP
18
1C
3C
36
67
E3
ENDCHAR
STARTCHAR underscore
ENCODING 95
SWIDTH 620 0
DWIDTH 10 0
BBX 6 2 2 -3
BITMAP
FC
FC
ENDCHAR
STARTCHAR grave
ENCODING 96
SWIDTH 268 0
DWIDTH 4 0
BBX 4 3 0 9
BITMAP
C0
F0
30
ENDCHAR
STARTCHAR a
ENCODING 97
SWIDTH 511 0
DWIDTH 8 0
BBX 8 8 0 0
BITMAP
7C
7E
06
3E
7E
E6
7E
7F
ENDCHAR
STARTCHAR b
ENCODING 98
SWIDTH 544 0
DWIDTH 9 0
BBX 7 11 1 0
BITMAP
C0
C0
C0
FC
FE
C6
C6
C6
C6
FE
FC
ENDCHAR
STARTCHAR c
ENCODING 99
SWIDTH 446 0
DWIDTH 7 0
BBX 6 8 1 0
BITMAP
7C
F8
C0
C0
C0
C0
F8
7C
ENDCHAR
STARTCHAR d
ENCODING 100
SWIDTH 549 0
DWIDTH 9 0
BBX 7 11 1 0
BITMAP
06
06
06
7E
FE
C6
C6
C6
C6
FE
7E
ENDCHAR
STARTCHAR e
ENCODING 101
SWIDTH 510 0
DWIDTH 8 0
BBX 7 8 1 0
BITMAP
7C
FC
CE
FE
FC
C0
FC
7C
ENDCHAR
STARTCHAR f
ENCODING 102
SWIDTH 357 0
DWIDTH 6 0
BBX 5 11 1 0
BITMAP
78
F8
E0
F0
F0
E0
E0
E0
E0
E0
E0
ENDCHAR
STARTCHAR g
ENCODING 103
SWIDTH 534 0
DWIDTH 9 0
BBX 7 12 1 -4
BITMAP
7E
FE
CC
CC
FC
C0
E0
7E
CE
C6
FE
78
ENDCHAR
STARTCHAR h
ENCODING 104
SWIDTH 553 0
DWIDTH 9 0
BBX 7 11 1 0
BITMAP
C0
C0
C0
FC
FE
C6
C6
C6
C6
C6
C6
ENDCHAR
STARTCHAR i
ENCODING 105
SWIDTH 258 0
DWIDTH 4 0
BBX 2 11 1 0
BITMAP
C0
C0
00
C0
C0
C0
C0
C0
C0
C0
C0
ENDCHAR
STARTCHAR j
ENCODING 106
SWIDTH 259 0
DWIDTH 4 0
BBX 4 15 -1 -4
BITMAP
30
30
00
30
30
30
30
30
30
30
30
30
70
E0
40
ENDCHAR
STARTCHAR k
ENCODING 107
SWIDTH 515 0
DWIDTH 8 0
BBX 7 11 1 0
BITMAP
C0
C0
C0
CE
CC
DC
F8
F8
DC
CC
CE
ENDCHAR
STARTCHAR l
ENCODING 108
SWIDTH 270 0
DWIDTH 4 0
BBX 2 11 1 0
BITMAP
C0
C0
C0
C0
C0
C0
C0
C0
C0
C0
C0
ENDCHAR
STARTCHAR m
ENCODING 109
SWIDTH 839 0
DWIDTH 13 0
BBX 12 8 1 0
BITMAP
FFE0
FFE0
C660
C670
C670
C670
C670
C670
ENDCHAR
STARTCHAR n
ENCODING 110
SWIDTH 553 0
DWIDTH 9 0
BBX 7 8 1 0
BITMAP
FC
FE
C6
C6
C6
C6
C6
C6
ENDCHAR
STARTCHAR o
ENCODING 111
SWIDTH 532 0
DWIDTH 9 0
BBX 7 8 1 0
BITMAP
7C
FC
C6
C6
C6
C6
FC
7C
ENDCHAR
STARTCHAR p
ENCODING 112
SWIDTH 544 0
DWIDTH 9 0
BBX 7 11 1 -3
BITMAP
FC
FE
C6
C6
C6
C6
FE
FC
C0
C0
C0
ENDCHAR
STARTCHAR q
ENCODING 113
SWIDTH 543 0
DWIDTH 9 0
BBX 7 11 1 -3
BITMAP
7E
FE
C6
C6
C6
C6
FE
7E
06
06
06
ENDCHAR
STARTCHAR r
ENCODING 114
SWIDTH 372 0
DWIDTH 6 0
BBX 5 8 1 0
BITMAP
D8
F8
E0
C0
C0
C0
C0
C0
ENDCHAR
STARTCHAR s
ENCODING 115
SWIDTH 472 0
DWIDTH 8 0
BBX 6 8 1 0
BITMAP
FC
FC
C0
F8
7C
0C
FC
F8
ENDCHAR
STARTCHAR t
ENCODING 116
SWIDTH 364 0
DWIDTH 6 0
BBX 5 10 0 0
BITMAP
60
60
F8
F8
60
60
60
60
78
38
ENDCHAR
STARTCHAR u
ENCODING 117
SWIDTH 553 0
DWIDTH 9 0
BBX 7 8 1 0
BITMAP
C6
C6
C6
C6
C6
C6
FE
7E
ENDCHAR
STARTCHAR v
ENCODING 118
SWIDTH 498 0
DWIDTH 8 0
BBX 8 8 0 0
BITMAP
E7
66
66
66
66
3C
3C
3C
ENDCHAR
STARTCHAR w
ENCODING 119
SWIDTH 772 0
DWIDTH 12 0
BBX 12 8 0 0
BITMAP
E630
6730
6760
6F60
6F60
6D60
3DE0
39E0
ENDCHAR
STARTCHAR x
ENCODING 120
SWIDTH 474 0
DWIDTH 8 0
BBX 7 8 0 0
BITMAP
E6
6E
3C
38
38
3C
6E
E6
ENDCHAR
STARTCHAR y
ENCODING 121
SWIDTH 500 0
DWIDTH 8 0
BBX 8 11 0 -3
BITMAP
C3
66
66
66
66
3C
3C
3C
0C
18
18
ENDCHAR
STARTCHAR z
ENCODING 122
SWIDTH 454 0
DWIDTH 7 0
BBX 6 8 1 0
BITMAP
FC
FC
18
30
70
E0
FC
FC
ENDCHAR
STARTCHAR braceleft
ENCODING 123
SWIDTH 361 0
DWIDTH 6 0
BBX 5 14 0 -2
BITMAP
18
38
30
30
30
30
F0
F0
30
30
30
30
38
18
ENDCHAR
STARTCHAR bar
ENCODING 124
SWIDTH 268 0
DWIDTH 4 0
BBX 2 14 1 -3
BITMAP
C0
C0
C0
C0
C0
C0
C0
C0
C0
C0
C0
C0
C0
C0
ENDCHAR
STARTCHAR braceright
ENCODING 125
SWIDTH 361 0
DWIDTH 6 0
BBX 5 14 1 -2
BITMAP
C0
E0
60
60
60
60
78
78
60
60
60
60
E0
C0
ENDCHAR
STARTCHAR asciitilde
ENCODING 126
SWIDTH 560 0
DWIDTH 9 0
BBX 7 2 1 3
BITMAP
FE
FE
ENDCHAR
STARTCHAR uni00A0
ENCODING 160
SWIDTH 220 0
DWIDTH 4 0
BBX 1 1 0 0
BITMAP
00
ENDCHAR
STARTCHAR exclamdown
ENCODING 161
SWIDTH 264 0
DWIDTH 4 0
BBX 2 11 1 -3
BITMAP
C0
C0
C0
00
C0
C0
C0
C0
C0
C0
C0
ENDCHAR
STARTCHAR cent
ENCODING 162
SWIDTH 560 0
DWIDTH 9 0
BBX 6 10 1 -1
BITMAP
18
18
7C
60
E0
E0
60
7C
18
18
ENDCHAR
STARTCHAR sterling
ENCODING 163
SWIDTH 560 0
DWIDTH 9 0
BBX 7 11 1 0
BITMAP
1C
3C
70
70
FC
FC
70
70
70
FE
FE
ENDCHAR
STARTCHAR currency
ENCODING 164
SWIDTH 560 0
DWIDTH 9 0
BBX 8 8 0 0
BITMAP
43
FF
3E
63
63
7E
FF
41
ENDCHAR
STARTCHAR yen
ENCODING 165
SWIDTH 560 0
DWIDTH 9 0
BBX 9 11 0 0
BITMAP
E380
6300
7700
3600
3E00
7F00
1C00
7F00
7F00
1C00
1C00
ENDCHAR
STARTCHAR brokenbar
ENCODING 166
SWIDTH 272 0
DWIDTH 4 0
BBX 2 14 1 -3
BITMAP
C0
C0
C0
C0
C0
C0
00
00
C0
C0
C0
C0
C0
C0
ENDCHAR
STARTCHAR section
ENCODING 167
SWIDTH 517 0
DWIDTH 8 0
BBX 7 13 1 -3
BITMAP
7C
FC
C0
E0
7C
DE
CE
FC
7C
0C
0C
FC
F8
ENDCHAR
STARTCHAR dieresis
ENCODING 168
SWIDTH 268 0
DWIDTH 4 0
BBX 5 2 0 10
BITMAP
D8
D8
ENDCHAR
STARTCHAR copyright
ENCODING 169
SWIDTH 643 0
DWIDTH 10 0
BBX 9 9 1 2
BITMAP
7E00
C900
BD00
B080
B080
BD00
D900
6600
1800
ENDCHAR
STARTCHAR ordfeminine
ENCODING 170
SWIDTH 416 0
DWIDTH 7 0
BBX 5 6 1 5
BITMAP
60
F0
18
F8
F8
F8
ENDCHAR
STARTCHAR guillemotleft
ENCODING 171
SWIDTH 601 0
DWIDTH 10 0
BBX 8 7 1 0
BITMAP
21
67
CE
CE
E7
23
11
ENDCHAR
STARTCHAR logicalnot
ENCODING 172
SWIDTH 560 0
DWIDTH 9 0
BBX 7 4 1 2
BITMAP
FE
FE
06
06
ENDCHAR
STARTCHAR registered
ENCODING 174
SWIDTH 643 0
DWIDTH 10 0
BBX 9 9 1 2
BITMAP
7E00
C100
BD00
B480
BC80
BD00
F500
6600
1800
ENDCHAR
STARTCHAR macron
ENCODING 175
SWIDTH 268 0
DWIDTH 4 0
BBX 5 1 0 10
BITMAP
F8
ENDCHAR
STARTCHAR degree
ENCODING 176
SWIDTH 560 0
DWIDTH 9 0
BBX 5 5 2 6
BITMAP
70
D8
88
D8
70
ENDCHAR
STARTCHAR plusminus
ENCODING 177
SWIDTH 560 0
DWIDTH 9 0
BBX 7 8 1 0
BITMAP
30
30
FE
FE
30
00
FE
FE
ENDCHAR
STARTCHAR twosuperior
ENCODING 178
SWIDTH 280 0
DWIDTH 4 0
BBX 4 5 0 8
BITMAP
F0
F0
30
60
F0
ENDCHAR
STARTCHAR threesuperior
ENCODING 179
SWIDTH 280 0
DWIDTH 4 0
BBX 4 6 0 7
BITMAP
F0
F0
70
70
F0
20
ENDCHAR
STARTCHAR acute
ENCODING 180
SWIDTH 268 0
DWIDTH 4 0
BBX 5 3 0 9
BITMAP
10
F8
C0
ENDCHAR
STARTCHAR mu
ENCODING 181
SWIDTH 560 0
DWIDTH 9 0
BBX 7 11 1 -3
BITMAP
C6
C6
C6
C6
C6
C6
FE
FE
C0
C0
C0
ENDCHAR
STARTCHAR paragraph
ENCODING 182
SWIDTH 599 0
DWIDTH 10 0
BBX 9 11 0 0
BITMAP
3F80
7F80
7B00
FB00
7B00
7B00
0B00
0B00
0B00
0B00
0B00
ENDCHAR
STARTCHAR periodcentered
ENCODING 183
SWIDTH 256 0
DWIDTH 4 0
BBX 2 2 1 3
BITMAP
C0
C0
ENDCHAR
STARTCHAR cedilla
ENCODING 184
SWIDTH 264 0
DWIDTH 4 0
BBX 4 4 0 -4
BITMAP
40
70
70
E0
ENDCHAR
STARTCHAR onesuperior
ENCODING 185
SWIDTH 280 0
DWIDTH 4 0
BBX 3 5 0 8
BITMAP
20
E0
60
20
20
ENDCHAR
STARTCHAR ordmasculine
ENCODING 186
SWIDTH 420 0
DWIDTH 7 0
BBX 5 6 1 5
BITMAP
20
F8
D8
D8
F8
70
ENDCHAR
STARTCHAR guillemotright
ENCODING 187
SWIDTH 603 0
DWIDTH 10 0
BBX 8 7 1 0
BITMAP
88
CE
67
63
EE
8C
88
ENDCHAR
STARTCHAR onequarter
ENCODING 188
SWIDTH 548 0
DWIDTH 9 0
BBX 8 15 0 -2
BITMAP
30
F0
72
33
36
04
08
08
10
30
26
45
CD
0F
01
ENDCHAR
STARTCHAR onehalf
ENCODING 189
SWIDTH 542 0
DWIDTH 9 0
BBX 8 15 0 -2
BITMAP
30
F0
72
33
36
04
08
08
10
36
27
43
C6
0F
0F
ENDCHAR
STARTCHAR threequarters
ENCODING 190
SWIDTH 561 0
DWIDTH 9 0
BBX 8 15 1 -2
BITMAP
E0
E0
E4
E6
E4
48
18
10
20
20
4C
CE
8A
0F
02
ENDCHAR
STARTCHAR questiondown
ENCODING 191
SWIDTH 433 0
DWIDTH 7 0
BBX 6 11 0 -3
BITMAP
18
18
18
18
18
38
70
60
E0
7C
7C
ENDCHAR
STARTCHAR Agrave
ENCODING 192
SWIDTH 602 0
DWIDTH 10 0
BBX 9 15 0 0
BITMAP
1000
3E00
0600
0000
1E00
3E00
3600
3300
3300
3300
6300
7F80
7F80
6180
E180
ENDCHAR
STARTCHAR Aacute
ENCODING 193
SWIDTH 602 0
DWIDTH 10 0
BBX 9 15 0 0
BITMAP
0600
1E00
1800
0000
1E00
3E00
3600
3300
3300
3300
6300
7F80
7F80
6180
E180
ENDCHAR
STARTCHAR Acircumflex
ENCODING 194
SWIDTH 602 0
DWIDTH 10 0
BBX 9 15 0 0
BITMAP
0C00
1E00
3700
0000
1E00
3E00
3600
3300
3300
3300
6300
7F80
7F80
6180
E180
ENDCHAR
STARTCHAR Atilde
ENCODING 195
SWIDTH 602 0
DWIDTH 10 0
BBX 9 15 0 0
BITMAP
1900
3F00
2600
0000
1E00
3E00
3600
3300
3300
3300
6300
7F80
7F80
6180
E180
ENDCHAR
STARTCHAR Adieresis
ENCODING 196
SWIDTH 602 0
DWIDTH 10 0
BBX 9 14 0 0
BITMAP
3700
3700
0000
1E00
3E00
3600
3300
3300
3300
6300
7F80
7F80
6180
E180
ENDCHAR
STARTCHAR Aring
ENCODING 197
SWIDTH 602 0
DWIDTH 10 0
BBX 9 14 0 0
BITMAP
0800
1E00
3200
1E00
3E00
3600
3300
3300
3300
6300
7F80
7F80
6180
E180
ENDCHAR
STARTCHAR AE
ENCODING 198
SWIDTH 871 0
DWIDTH 14 0
BBX 13 11 0 0
BITMAP
1FF8
1FF8
3B00
3300
33F0
33F0
7300
7F00
7F00
63F8
E3F8
ENDCHAR
STARTCHAR Ccedilla
ENCODING 199
SWIDTH 543 0
DWIDTH 9 0
BBX 7 15 1 -4
BITMAP
7E
FE
E0
C0
C0
C0
C0
C0
C0
FE
7E
10
1C
1C
18
ENDCHAR
STARTCHAR Egrave
ENCODING 200
SWIDTH 554 0
DWIDTH 9 0
BBX 7 15 1 0
BITMAP
20
7C
0C
00
FE
FE
C0
C0
C0
FC
C0
C0
C0
FE
FE
ENDCHAR
STARTCHAR Eacute
ENCODING 201
SWIDTH 554 0
DWIDTH 9 0
BBX 7 15 1 0
BITMAP
0C
7C
30
00
FE
FE
C0
C0
C0
FC
C0
C0
C0
FE
FE
ENDCHAR
STARTCHAR Ecircumflex
ENCODING 202
SWIDTH 554 0
DWIDTH 9 0
BBX 7 15 1 0
BITMAP
18
3C
6E
00
FE
FE
C0
C0
C0
FC
C0
C0
C0
FE
FE
ENDCHAR
STARTCHAR Edieresis
ENCODING 203
SWIDTH 554 0
DWIDTH 9 0
BBX 7 14 1 0
BITMAP
6C
6C
00
FE
FE
C0
C0
C0
FC
C0
C0
C0
FE
FE
ENDCHAR
STARTCHAR Igrave
ENCODING 204
SWIDTH 286 0
DWIDTH 5 0
BBX 4 15 0 0
BITMAP
C0
F0
30
00
60
60
60
60
60
60
60
60
60
60
60
ENDCHAR
STARTCHAR Iacute
ENCODING 205
SWIDTH 286 0
DWIDTH 5 0
BBX 5 15 0 0
BITMAP
10
F8
C0
00
60
60
60
60
60
60
60
60
60
60
60
ENDCHAR
STARTCHAR Icircumflex
ENCODING 206
SWIDTH 286 0
DWIDTH 5 0
BBX 6 15 -1 0
BITMAP
30
78
EC
00
30
30
30
30
30
30
30
30
30
30
30
ENDCHAR
STARTCHAR Idieresis
ENCODING 207
SWIDTH 286 0
DWIDTH 5 0
BBX 5 14 0 0
BITMAP
D8
D8
00
60
60
60
60
60
60
60
60
60
60
60
ENDCHAR
STARTCHAR Eth
ENCODING 208
SWIDTH 642 0
DWIDTH 10 0
BBX 10 11 0 0
BITMAP
7F00
7F80
6180
6180
FD80
FDC0
FD80
6180
6380
7F80
7F00
ENDCHAR
STARTCHAR Ntilde
ENCODING 209
SWIDTH 693 0
DWIDTH 11 0
BBX 9 15 1 0
BITMAP
3200
7F00
2E00
0000
F180
F180
D980
D980
D980
C980
CD80
CD80
C580
C780
C780
ENDCHAR
STARTCHAR Ograve
ENCODING 210
SWIDTH 652 0
DWIDTH 10 0
BBX 9 15 1 0
BITMAP
3000
3C00
0C00
0000
3E00
7F00
E300
C380
C380
C380
C380
C380
C300
FF00
7E00
ENDCHAR
STARTCHAR Oacute
ENCODING 211
SWIDTH 652 0
DWIDTH 10 0
BBX 9 15 1 0
BITMAP
0C00
3C00
3000
0000
3E00
7F00
E300
C380
C380
C380
C380
C380
C300
FF00
7E00
ENDCHAR
STARTCHAR Ocircumflex
ENCODING 212
SWIDTH 652 0
DWIDTH 10 0
BBX 9 15 1 0
BITMAP
1800
3C00
7600
0000
3E00
7F00
E300
C380
C380
C380
C380
C380
C300
FF00
7E00
ENDCHAR
STARTCHAR Otilde
ENCODING 213
SWIDTH 652 0
DWIDTH 10 0
BBX 9 15 1 0
BITMAP
3200
7E00
4E00
0000
3E00
7F00
E300
C380
C380
C380
C380
C380
C300
FF00
7E00
ENDCHAR
STARTCHAR Odieresis
ENCODING 214
SWIDTH 652 0
DWIDTH 10 0
BBX 9 14 1 0
BITMAP
7600
7600
0000
3E00
7F00
E300
C380
C380
C380
C380
C380
C300
FF00
7E00
ENDCHAR
STARTCHAR multiply
ENCODING 215
SWIDTH 560 0
DWIDTH 9 0
BBX 7 8 1 0
BITMAP
44
C6
6C
38
38
6C
C6
44
ENDCHAR
STARTCHAR Oslash
ENCODING 216
SWIDTH 652 0
DWIDTH 10 0
BBX 9 15 1 -2
BITMAP
0100
0300
3F00
7F00
E700
CF80
CF80
DB80
DB80
F380
F300
FF00
7E00
C000
4000
ENDCHAR
STARTCHAR Ugrave
ENCODING 217
SWIDTH 654 0
DWIDTH 10 0
BBX 8 15 1 0
BITMAP
30
3C
0C
00
C3
C3
C3
C3
C3
C3
C3
C3
E3
7F
7E
ENDCHAR
STARTCHAR Uacute
ENCODING 218
SWIDTH 654 0
DWIDTH 10 0
BBX 8 15 1 0
BITMAP
0C
3C
30
00
C3
C3
C3
C3
C3
C3
C3
C3
E3
7F
7E
ENDCHAR
STARTCHAR Ucircumflex
ENCODING 219
SWIDTH 654 0
DWIDTH 10 0
BBX 8 15 1 0
BITMAP
18
3C
76
00
C3
C3
C3
C3
C3
C3
C3
C3
E3
7F
7E
ENDCHAR
STARTCHAR Udieresis
ENCODING 220
SWIDTH 654 0
DWIDTH 10 0
BBX 8 14 1 0
BITMAP
76
76
00
C3
C3
C3
C3
C3
C3
C3
C3
E3
7F
7E
ENDCHAR
STARTCHAR Yacute
ENCODING 221
SWIDTH 557 0
DWIDTH 9 0
BBX 9 15 0 0
BITMAP
0400
3E00
3800
0000
E380
6300
7700
3600
3E00
1C00
1C00
1C00
1C00
1C00
1C00
ENDCHAR
STARTCHAR Thorn
ENCODING 222
SWIDTH 596 0
DWIDTH 10 0
BBX 8 11 1 0
BITMAP
C0
C0
FE
FF
C3
C3
C3
FF
FE
C0
C0
ENDCHAR
STARTCHAR germandbls
ENCODING 223
SWIDTH 611 0
DWIDTH 10 0
BBX 8 11 1 0
BITMAP
7E
FE
C6
DE
D8
D8
DE
C7
C3
DF
DF
ENDCHAR
STARTCHAR agrave
ENCODING 224
SWIDTH 511 0
DWIDTH 8 0
BBX 8 12 0 0
BITMAP
30
3C
0C
00
7C
7E
06
3E
7E
E6
7E
7F
ENDCHAR
STARTCHAR aacute
ENCODING 225
SWIDTH 511 0
DWIDTH 8 0
BBX 8 12 0 0
BITMAP
0C
3C
30
00
7C
7E
06
3E
7E
E6
7E
7F
ENDCHAR
STARTCHAR acircumflex
ENCODING 226
SWIDTH 511 0
DWIDTH 8 0
BBX 8 12 0 0
BITMAP
18
3C
66
00
7C
7E
06
3E
7E
E6
7E
7F
ENDCHAR
STARTCHAR atilde
ENCODING 227
SWIDTH 511 0
DWIDTH 8 0
BBX 8 12 0 0
BITMAP
24
7C
48
00
7C
7E
06
3E
7E
E6
7E
7F
ENDCHAR
STARTCHAR adieresis
ENCODING 228
SWIDTH 511 0
DWIDTH 8 0
BBX 8 12 0 0
BITMAP
6E
6E
00
00
7C
7E
06
3E
7E
E6
7E
7F
ENDCHAR
STARTCHAR aring
ENCODING 229
SWIDTH 511 0
DWIDTH 8 0
BBX 8 12 0 0
BITMAP
1C
34
3C
18
7C
7E
06
3E
7E
E6
7E
7F
ENDCHAR
STARTCHAR ae
ENCODING 230
SWIDTH 784 0
DWIDTH 13 0
BBX 12 8 0 0
BITMAP
7FE0
7FF0
0630
3FF0
7FF0
E600
7FF0
7FF0
ENDCHAR
STARTCHAR ccedilla
ENCODING 231
SWIDTH 446 0
DWIDTH 7 0
BBX 6 12 1 -4
BITMAP
7C
F8
C0
C0
C0
C0
F8
7C
20
38
38
30
ENDCHAR
STARTCHAR egrave
ENCODING 232
SWIDTH 510 0
DWIDTH 8 0
BBX 7 12 1 0
BITMAP
60
78
18
00
7C
FC
CE
FE
FC
C0
FC
7C
ENDCHAR
STARTCHAR eacute
ENCODING 233
SWIDTH 510 0
DWIDTH 8 0
BBX 7 12 1 0
BITMAP
18
78
60
00
7C
FC
CE
FE
FC
C0
FC
7C
ENDCHAR
STARTCHAR ecircumflex
ENCODING 234
SWIDTH 510 0
DWIDTH 8 0
BBX 7 12 1 0
BITMAP
30
78
EC
00
7C
FC
CE
FE
FC
C0
FC
7C
ENDCHAR
STARTCHAR edieresis
ENCODING 235
SWIDTH 510 0
DWIDTH 8 0
BBX 7 12 1 0
BITMAP
CC
CC
00
00
7C
FC
CE
FE
FC
C0
FC
7C
ENDCHAR
STARTCHAR igrave
ENCODING 236
SWIDTH 258 0
DWIDTH 4 0
BBX 5 12 -1 0
BITMAP
40
F8
10
00
30
30
30
30
30
30
30
30
ENDCHAR
STARTCHAR iacute
ENCODING 237
SWIDTH 258 0
DWIDTH 4 0
BBX 5 12 0 0
BITMAP
18
F8
60
00
60
60
60
60
60
60
60
60
ENDCHAR
STARTCHAR icircumflex
ENCODING 238
SWIDTH 258 0
DWIDTH 4 0
BBX 6 12 -1 0
BITMAP
30
78
CC
00
30
30
30
30
30
30
30
30
ENDCHAR
STARTCHAR idieresis
ENCODING 239
SWIDTH 258 0
DWIDTH 4 0
BBX 6 12 -1 0
BITMAP
CC
CC
00
00
30
30
30
30
30
30
30
30
ENDCHAR
STARTCHAR eth
ENCODING 240
SWIDTH 567 0
DWIDTH 9 0
BBX 7 12 1 0
BITMAP
04
FC
3C
6E
46
7E
FE
C6
C6
C6
FE
7C
ENDCHAR
STARTCHAR ntilde
ENCODING 241
SWIDTH 553 0
DWIDTH 9 0
BBX 7 12 1 0
BITMAP
24
7C
48
00
FC
FE
C6
C6
C6
C6
C6
C6
ENDCHAR
STARTCHAR ograve
ENCODING 242
SWIDTH 532 0
DWIDTH 9 0
BBX 7 12 1 0
BITMAP
60
7C
18
00
7C
FC
C6
C6
C6
C6
FC
7C
ENDCHAR
STARTCHAR oacute
ENCODING 243
SWIDTH 532 0
DWIDTH 9 0
BBX 7 12 1 0
BITMAP
08
7C
60
00
7C
FC
C6
C6
C6
C6
FC
7C
ENDCHAR
STARTCHAR ocircumflex
ENCODING 244
SWIDTH 532 0
DWIDTH 9 0
BBX 7 12 1 0
BITMAP
30
78
EC
00
7C
FC
C6
C6
C6
C6
FC
7C
ENDCHAR
STARTCHAR otilde
ENCODING 245
SWIDTH 532 0
DWIDTH 9 0
BBX 7 12 1 0
BITMAP
24
FC
88
00
7C
FC
C6
C6
C6
C6
FC
7C
ENDCHAR
STARTCHAR odieresis
ENCODING 246
SWIDTH 532 0
DWIDTH 9 0
BBX 7 12 1 0
BITMAP
EC
EC
00
00
7C
FC
C6
C6
C6
C6
FC
7C
ENDCHAR
STARTCHAR divide
ENCODING 247
SWIDTH 560 0
DWIDTH 9 0
BBX 7 8 1 0
BITMAP
38
38
00
FE
FE
00
38
38
ENDCHAR
STARTCHAR oslash
ENCODING 248
SWIDTH 532 0
DWIDTH 9 0
BBX 7 12 1 -2
BITMAP
04
0C
7C
FC
D6
D6
F6
E6
FC
7C
40
C0
ENDCHAR
STARTCHAR ugrave
ENCODING 249
SWIDTH 553 0
DWIDTH 9 0
BBX 7 12 1 0
BITMAP
60
78
18
00
C6
C6
C6
C6
C6
C6
FE
7E
ENDCHAR
STARTCHAR uacute
ENCODING 250
SWIDTH 553 0
DWIDTH 9 0
BBX 7 12 1 0
BITMAP
08
7C
60
00
C6
C6
C6
C6
C6
C6
FE
7E
ENDCHAR
STARTCHAR ucircumflex
ENCODING 251
SWIDTH 553 0
DWIDTH 9 0
BBX 7 12 1 0
BITMAP
30
78
CC
00
C6
C6
C6
C6
C6
C6
FE
7E
ENDCHAR
STARTCHAR udieresis
ENCODING 252
SWIDTH 553 0
DWIDTH 9 0
BBX 7 12 1 0
BITMAP
6C
6C
00
00
C6
C6
C6
C6
C6
C6
FE
7E
ENDCHAR
STARTCHAR yacute
ENCODING 253
SWIDTH 500 0
DWIDTH 8 0
BBX 8 15 0 -3
BITMAP
04
3E
30
00
C3
66
66
66
66
3C
3C
3C
0C
18
18
ENDCHAR
STARTCHAR thorn
ENCODING 254
SWIDTH 544 0
DWIDTH 9 0
BBX 7 14 1 -3
BITMAP
C0
C0
C0
FC
FE
C6
C6
C6
C6
FE
FC
C0
C0
C0
ENDCHAR
STARTCHAR ydieresis
ENCODING 255
SWIDTH 500 0
DWIDTH 8 0
BBX 8 15 0 -3
BITMAP
66
66
00
00
C3
66
66
66
66
3C
3C
3C
0C
18
18
ENDCHAR
STARTCHAR Amacron
ENCODING 256
SWIDTH 602 0
DWIDTH 10 0
BBX 9 14 0 0
BITMAP
3F00
0000
0000
1E00
3E00
3600
3300
3300
3300
6300
7F80
7F80
6180
E180
ENDCHAR
STARTCHAR amacron
ENCODING 257
SWIDTH 511 0
DWIDTH 8 0
BBX 8 11 0 0
BITMAP
3C
00
00
7C
7E
06
3E
7E
E6
7E
7F
ENDCHAR
STARTCHAR Abreve
ENCODING 258
SWIDTH 602 0
DWIDTH 10 0
BBX 9 15 0 0
BITMAP
3300
3E00
1C00
0000
1E00
3E00
3600
3300
3300
3300
6300
7F80
7F80
6180
E180
ENDCHAR
STARTCHAR abreve
ENCODING 259
SWIDTH 512 0
DWIDTH 8 0
BBX 8 12 0 0
BITMAP
66
7E
18
00
7C
7E
06
3E
7E
E6
7F
7F
ENDCHAR
STARTCHAR Aogonek
ENCODING 260
SWIDTH 602 0
DWIDTH 10 0
BBX 10 14 0 -3
BITMAP
1E00
3E00
3600
3300
3300
3300
6300
7F80
7F80
6180
E180
0180
0300
03C0
ENDCHAR
STARTCHAR aogonek
ENCODING 261
SWIDTH 510 0
DWIDTH 8 0
BBX 8 11 0 -3
BITMAP
7C
7E
06
3E
7E
E6
7E
7F
06
0C
0F
ENDCHAR
STARTCHAR Cacute
ENCODING 262
SWIDTH 543 0
DWIDTH 9 0
BBX 7 15 1 0
BITMAP
0C
7C
30
00
7E
FE
E0
C0
C0
C0
C0
C0
C0
FE
7E
ENDCHAR
STARTCHAR cacute
ENCODING 263
SWIDTH 446 0
DWIDTH 7 0
BBX 6 12 1 0
BITMAP
18
78
60
00
7C
F8
C0
C0
C0
C0
F8
7C
ENDCHAR
STARTCHAR Ccircumflex
ENCODING 264
SWIDTH 543 0
DWIDTH 9 0
BBX 7 15 1 0
BITMAP
18
3C
6E
00
7E
FE
E0
C0
C0
C0
C0
C0
C0
FE
7E
ENDCHAR
STARTCHAR ccircumflex
ENCODING 265
SWIDTH 446 0
DWIDTH 7 0
BBX 6 12 1 0
BITMAP
20
70
D8
00
7C
F8
C0
C0
C0
C0
F8
7C
ENDCHAR
STARTCHAR Cdotaccent
ENCODING 266
SWIDTH 543 0
DWIDTH 9 0
BBX 7 14 1 0
BITMAP
38
38
00
7E
FE
E0
C0
C0
C0
C0
C0
C0
FE
7E
ENDCHAR
STARTCHAR cdotaccent
ENCODING 267
SWIDTH 446 0
DWIDTH 7 0
BBX 6 11 1 0
BITMAP
30
30
00
7C
F8
C0
C0
C0
C0
F8
7C
ENDCHAR
STARTCHAR Ccaron
ENCODING 268
SWIDTH 543 0
DWIDTH 9 0
BBX 7 15 1 0
BITMAP
66
3C
18
00
7E
FE
E0
C0
C0
C0
C0
C0
C0
FE
7E
ENDCHAR
STARTCHAR ccaron
ENCODING 269
SWIDTH 446 0
DWIDTH 7 0
BBX 6 12 1 0
BITMAP
DC
78
30
00
7C
F8
C0
C0
C0
C0
F8
7C
ENDCHAR
STARTCHAR Dcaron
ENCODING 270
SWIDTH 638 0
DWIDTH 10 0
BBX 8 15 1 0
BITMAP
66
3C
18
00
FC
FF
C3
C3
C3
C3
C3
C3
C3
FF
FE
ENDCHAR
STARTCHAR dcaron
ENCODING 271
SWIDTH 664 0
DWIDTH 11 0
BBX 11 11 1 0
BITMAP
06E0
06C0
06C0
7EC0
FE00
C600
C600
C600
C600
FE00
7E00
ENDCHAR
STARTCHAR Dcroat
ENCODING 272
SWIDTH 642 0
DWIDTH 10 0
BBX 10 11 0 0
BITMAP
7F00
7F80
6180
6180
FD80
FDC0
FD80
6180
6380
7F80
7F00
ENDCHAR
STARTCHAR dcroat
ENCODING 273
SWIDTH 549 0
DWIDTH 9 0
BBX 7 12 1 0
BITMAP
7C
7E
06
06
7E
FE
C6
C6
C6
C6
FE
7E
ENDCHAR
STARTCHAR Emacron
ENCODING 274
SWIDTH 554 0
DWIDTH 9 0
BBX 7 14 1 0
BITMAP
7C
00
00
FE
FE
C0
C0
C0
FC
C0
C0
C0
FE
FE
ENDCHAR
STARTCHAR emacron
ENCODING 275
SWIDTH 510 0
DWIDTH 8 0
BBX 7 11 1 0
BITMAP
78
00
00
7C
FC
CE
FE
FC
C0
FC
7C
ENDCHAR
STARTCHAR Ebreve
ENCODING 276
SWIDTH 554 0
DWIDTH 9 0
BBX 7 15 1 0
BITMAP
66
7C
38
00
FE
FE
C0
C0
C0
FC
C0
C0
C0
FE
FE
ENDCHAR
STARTCHAR ebreve
ENCODING 277
SWIDTH 510 0
DWIDTH 8 0
BBX 7 12 1 0
BITMAP
CC
78
30
00
7C
FC
CE
FE
FC
C0
FC
7C
ENDCHAR
STARTCHAR Edotaccent
ENCODING 278
SWIDTH 554 0
DWIDTH 9 0
BBX 7 14 1 0
BITMAP
18
18
00
FE
FE
C0
C0
C0
FC
C0
C0
C0
FE
FE
ENDCHAR
STARTCHAR edotaccent
ENCODING 279
SWIDTH 510 0
DWIDTH 8 0
BBX 7 11 1 0
BITMAP
30
30
00
7C
FC
CE
FE
FC
C0
FC
7C
ENDCHAR
STARTCHAR Eogonek
ENCODING 280
SWIDTH 554 0
DWIDTH 9 0
BBX 7 14 1 -3
BITMAP
FE
FE
C0
C0
C0
FC
C0
C0
C0
FE
FE
0C
0C
0E
ENDCHAR
STARTCHAR eogonek
ENCODING 281
SWIDTH 511 0
DWIDTH 8 0
BBX 7 11 1 -3
BITMAP
7C
FC
CE
FE
FC
C0
FC
7C
18
18
1C
ENDCHAR
STARTCHAR Ecaron
ENCODING 282
SWIDTH 554 0
DWIDTH 9 0
BBX 7 15 1 0
BITMAP
EE
7C
38
00
FE
FE
C0
C0
C0
FC
C0
C0
C0
FE
FE
ENDCHAR
STARTCHAR ecaron
ENCODING 283
SWIDTH 510 0
DWIDTH 8 0
BBX 7 12 1 0
BITMAP
CC
78
30
00
7C
FC
CE
FE
FC
C0
FC
7C
ENDCHAR
STARTCHAR Gcircumflex
ENCODING 284
SWIDTH 611 0
DWIDTH 10 0
BBX 8 15 1 0
BITMAP
18
3C
76
00
3F
7F
E0
C0
C0
C7
C7
C3
C3
FF
7F
ENDCHAR
STARTCHAR gcircumflex
ENCODING 285
SWIDTH 534 0
DWIDTH 9 0
BBX 7 16 1 -4
BITMAP
30
38
6C
00
7E
FE
CC
CC
FC
C0
E0
7E
CE
C6
FE
78
ENDCHAR
STARTCHAR Gbreve
ENCODING 286
SWIDTH 611 0
DWIDTH 10 0
BBX 8 15 1 0
BITMAP
66
7E
3C
00
3F
7F
E0
C0
C0
C7
C7
C3
C3
FF
7F
ENDCHAR
STARTCHAR gbreve
ENCODING 287
SWIDTH 534 0
DWIDTH 9 0
BBX 7 16 1 -4
BITMAP
4C
7C
38
00
7E
FE
CC
CC
FC
C0
E0
7E
CE
C6
FE
78
ENDCHAR
STARTCHAR Gdotaccent
ENCODING 288
SWIDTH 611 0
DWIDTH 10 0
BBX 8 14 1 0
BITMAP
18
18
00
3F
7F
E0
C0
C0
C7
C7
C3
C3
FF
7F
ENDCHAR
STARTCHAR gdotaccent
ENCODING 289
SWIDTH 534 0
DWIDTH 9 0
BBX 7 15 1 -4
BITMAP
30
30
00
7E
FE
CC
CC
FC
C0
E0
7E
CE
C6
FE
78
ENDCHAR
STARTCHAR Gcommaaccent
ENCODING 290
SWIDTH 611 0
DWIDTH 10 0
BBX 8 16 1 -5
BITMAP
3F
7F
E0
C0
C0
C7
C7
C3
C3
FF
7F
00
18
18
18
18
ENDCHAR
STARTCHAR gcommaaccent
ENCODING 291
SWIDTH 534 0
DWIDTH 9 0
BBX 7 17 1 -4
BITMAP
38
30
30
30
00
7E
FE
CC
CC
FC
C0
E0
7E
CE
C6
FE
78
ENDCHAR
STARTCHAR Hcircumflex
ENCODING 292
SWIDTH 677 0
DWIDTH 11 0
BBX 9 15 1 0
BITMAP
1800
3C00
7700
0000
C380
C380
C380
C380
C380
FF80
C380
C380
C380
C380
C380
ENDCHAR
STARTCHAR hcircumflex
ENCODING 293
SWIDTH 553 0
DWIDTH 9 0
BBX 7 14 1 0
BITMAP
38
6C
00
C0
C0
C0
FC
FE
C6
C6
C6
C6
C6
C6
ENDCHAR
STARTCHAR Hbar
ENCODING 294
SWIDTH 685 0
DWIDTH 11 0
BBX 11 11 0 0
BITMAP
61C0
FFE0
FFE0
61C0
61C0
7FC0
61C0
61C0
61C0
61C0
61C0
ENDCHAR
STARTCHAR hbar
ENCODING 295
SWIDTH 553 0
DWIDTH 9 0
BBX 8 11 0 0
BITMAP
60
F8
60
7E
7F
63
63
63
63
63
63
ENDCHAR
STARTCHAR Itilde
ENCODING 296
SWIDTH 286 0
DWIDTH 5 0
BBX 6 15 -1 0
BITMAP
64
FC
9C
00
30
30
30
30
30
30
30
30
30
30
30
ENDCHAR
STARTCHAR itilde
ENCODING 297
SWIDTH 258 0
DWIDTH 4 0
BBX 6 12 -1 0
BITMAP
24
FC
98
00
30
30
30
30
30
30
30
30
ENDCHAR
STARTCHAR Imacron
ENCODING 298
SWIDTH 286 0
DWIDTH 5 0
BBX 5 14 0 0
BITMAP
F8
00
00
60
60
60
60
60
60
60
60
60
60
60
ENDCHAR
STARTCHAR imacron
ENCODING 299
SWIDTH 258 0
DWIDTH 4 0
BBX 4 11 0 0
BITMAP
F0
00
00
60
60
60
60
60
60
60
60
ENDCHAR
STARTCHAR Ibreve
ENCODING 300
SWIDTH 286 0
DWIDTH 5 0
BBX 6 15 0 0
BITMAP
CC
F8
70
00
60
60
60
60
60
60
60
60
60
60
60
ENDCHAR
STARTCHAR ibreve
ENCODING 301
SWIDTH 258 0
DWIDTH 4 0
BBX 6 12 -1 0
BITMAP
CC
78
30
00
30
30
30
30
30
30
30
30
ENDCHAR
STARTCHAR Iogonek
ENCODING 302
SWIDTH 286 0
DWIDTH 5 0
BBX 4 14 0 -3
BITMAP
60
60
60
60
60
60
60
60
60
60
60
60
C0
F0
ENDCHAR
STARTCHAR iogonek
ENCODING 303
SWIDTH 258 0
DWIDTH 4 0
BBX 3 14 0 -3
BITMAP
60
60
00
60
60
60
60
60
60
60
60
60
C0
E0
ENDCHAR
STARTCHAR Idotaccent
ENCODING 304
SWIDTH 286 0
DWIDTH 5 0
BBX 2 14 1 0
BITMAP
C0
C0
00
C0
C0
C0
C0
C0
C0
C0
C0
C0
C0
C0
ENDCHAR
STARTCHAR dotlessi
ENCODING 305
SWIDTH 258 0
DWIDTH 4 0
BBX 2 8 1 0
BITMAP
C0
C0
C0
C0
C0
C0
C0
C0
ENDCHAR
STARTCHAR Jcircumflex
ENCODING 308
SWIDTH 302 0
DWIDTH 5 0
BBX 6 16 0 -1
BITMAP
30
78
DC
00
30
30
30
30
30
30
30
30
30
70
F0
E0
ENDCHAR
STARTCHAR jcircumflex
ENCODING 309
SWIDTH 259 0
DWIDTH 4 0
BBX 6 16 -1 -4
BITMAP
30
78
EC
00
30
30
30
30
30
30
30
30
30
70
E0
40
ENDCHAR
STARTCHAR Kcommaaccent
ENCODING 310
SWIDTH 591 0
DWIDTH 9 0
BBX 8 16 1 -5
BITMAP
C7
C7
C6
CE
CC
FC
FC
CE
C6
C7
C7
00
18
18
30
30
ENDCHAR
STARTCHAR kcommaaccent
ENCODING 311
SWIDTH 515 0
DWIDTH 8 0
BBX 8 16 0 -5
BITMAP
60
60
60
67
66
6E
7C
7C
6E
66
67
00
60
C0
C0
C0
ENDCHAR
STARTCHAR Lacute
ENCODING 313
SWIDTH 473 0
DWIDTH 8 0
BBX 6 15 1 0
BITMAP
18
78
60
00
C0
C0
C0
C0
C0
C0
C0
C0
C0
FC
FC
ENDCHAR
STARTCHAR lacute
ENCODING 314
SWIDTH 270 0
DWIDTH 4 0
BBX 4 15 1 0
BITMAP
70
F0
80
00
C0
C0
C0
C0
C0
C0
C0
C0
C0
C0
C0
ENDCHAR
STARTCHAR Lcommaaccent
ENCODING 315
SWIDTH 472 0
DWIDTH 8 0
BBX 6 16 1 -5
BITMAP
C0
C0
C0
C0
C0
C0
C0
C0
C0
FC
FC
00
30
30
30
30
ENDCHAR
STARTCHAR lcommaaccent
ENCODING 316
SWIDTH 270 0
DWIDTH 4 0
BBX 3 16 0 -5
BITMAP
60
60
60
60
60
60
60
60
60
60
60
00
60
60
60
C0
ENDCHAR
STARTCHAR Lcaron
ENCODING 317
SWIDTH 498 0
DWIDTH 8 0
BBX 6 11 1 0
BITMAP
CC
CC
CC
CC
C0
C0
C0
C0
C0
FC
FC
ENDCHAR
STARTCHAR lcaron
ENCODING 318
SWIDTH 377 0
DWIDTH 6 0
BBX 6 11 1 0
BITMAP
CC
CC
D8
D8
C0
C0
C0
C0
C0
C0
C0
ENDCHAR
STARTCHAR Lslash
ENCODING 321
SWIDTH 481 0
DWIDTH 8 0
BBX 8 11 0 0
BITMAP
70
70
70
7C
7C
70
F0
F0
70
7F
7F
ENDCHAR
STARTCHAR lslash
ENCODING 322
SWIDTH 381 0
DWIDTH 6 0
BBX 6 11 0 0
BITMAP
30
30
30
38
3C
38
F0
70
30
30
30
ENDCHAR
STARTCHAR Nacute
ENCODING 323
SWIDTH 693 0
DWIDTH 11 0
BBX 9 15 1 0
BITMAP
0400
3E00
1800
0000
F180
F180
D980
D980
D980
C980
CD80
CD80
C580
C780
C780
ENDCHAR
STARTCHAR nacute
ENCODING 324
SWIDTH 553 0
DWIDTH 9 0
BBX 7 12 1 0
BITMAP
0C
7C
20
00
FC
FE
C6
C6
C6
C6
C6
C6
ENDCHAR
STARTCHAR Ncommaaccent
ENCODING 325
SWIDTH 693 0
DWIDTH 11 0
BBX 9 16 1 -5
BITMAP
F180
F180
D980
D980
D980
C980
CD80
CD80
C580
C780
C780
0000
0C00
0C00
1800
1800
ENDCHAR
STARTCHAR ncommaaccent
ENCODING 326
SWIDTH 553 0
DWIDTH 9 0
BBX 8 13 0 -5
BITMAP
7E
7F
63
63
63
63
63
63
00
60
C0
C0
C0
ENDCHAR
STARTCHAR Ncaron
ENCODING 327
SWIDTH 693 0
DWIDTH 11 0
BBX 9 15 1 0
BITMAP
7700
3E00
1C00
0000
F180
F180
D980
D980
D980
C980
CD80
CD80
C580
C780
C780
ENDCHAR
STARTCHAR ncaron
ENCODING 328
SWIDTH 553 0
DWIDTH 9 0
BBX 7 12 1 0
BITMAP
6C
38
10
00
FC
FE
C6
C6
C6
C6
C6
C6
ENDCHAR
STARTCHAR Eng
ENCODING 330
SWIDTH 693 0
DWIDTH 11 0
BBX 9 14 1 -3
BITMAP
F180
F180
D980
D980
D980
C980
CD80
CD80
C580
C780
C780
0180
0780
0700
ENDCHAR
STARTCHAR eng
ENCODING 331
SWIDTH 552 0
DWIDTH 9 0
BBX 7 12 1 -4
BITMAP
FC
FE
C6
C6
C6
C6
C6
C6
06
0E
1C
08
ENDCHAR
STARTCHAR Omacron
ENCODING 332
SWIDTH 652 0
DWIDTH 10 0
BBX 9 14 1 0
BITMAP
7E00
0000
0000
3E00
7F00
E300
C380
C380
C380
C380
C380
C300
FF00
7E00
ENDCHAR
STARTCHAR omacron
ENCODING 333
SWIDTH 532 0
DWIDTH 9 0
BBX 7 11 1 0
BITMAP
7C
00
00
7C
FC
C6
C6
C6
C6
FC
7C
ENDCHAR
STARTCHAR Obreve
ENCODING 334
SWIDTH 652 0
DWIDTH 10 0
BBX 9 15 1 0
BITMAP
6600
3E00
1C00
0000
3E00
7F00
E300
C380
C380
C380
C380
C380
C300
FF00
7E00
ENDCHAR
STARTCHAR obreve
ENCODING 335
SWIDTH 532 0
DWIDTH 9 0
BBX 7 12 1 0
BITMAP
4C
7C
38
00
7C
FC
C6
C6
C6
C6
FC
7C
ENDCHAR
STARTCHAR Ohungarumlaut
ENCODING 336
SWIDTH 652 0
DWIDTH 10 0
BBX 9 16 1 0
BITMAP
2400
3300
3600
2600
0000
3E00
7F00
E300
C380
C380
C380
C380
C380
C300
FF00
7E00
ENDCHAR
STARTCHAR ohungarumlaut
ENCODING 337
SWIDTH 532 0
DWIDTH 9 0
BBX 7 13 1 0
BITMAP
64
6E
DC
48
00
7C
FC
C6
C6
C6
C6
FC
7C
ENDCHAR
STARTCHAR OE
ENCODING 338
SWIDTH 902 0
DWIDTH 14 0
BBX 13 11 1 0
BITMAP
7FF8
FFF8
E300
C300
C3F0
C3F0
C300
C300
E300
FFF8
7FF8
ENDCHAR
STARTCHAR oe
ENCODING 339
SWIDTH 834 0
DWIDTH 13 0
BBX 12 8 1 0
BITMAP
7BE0
FFE0
C630
C7F0
C7F0
C600
FFF0
7BF0
ENDCHAR
STARTCHAR Racute
ENCODING 340
SWIDTH 620 0
DWIDTH 10 0
BBX 8 15 1 0
BITMAP
0C
3C
30
00
FC
FF
C3
C3
C3
FF
FE
C6
C6
C7
C3
ENDCHAR
STARTCHAR racute
ENCODING 341
SWIDTH 372 0
DWIDTH 6 0
BBX 5 12 1 0
BITMAP
30
F0
C0
00
D8
F8
E0
C0
C0
C0
C0
C0
ENDCHAR
STARTCHAR Rcommaaccent
ENCODING 342
SWIDTH 620 0
DWIDTH 10 0
BBX 8 16 1 -5
BITMAP
FC
FF
C3
C3
C3
FF
FE
C6
C6
C7
C3
00
18
18
18
30
ENDCHAR
STARTCHAR rcommaaccent
ENCODING 343
SWIDTH 372 0
DWIDTH 6 0
BBX 6 13 0 -5
BITMAP
6C
7C
70
60
60
60
60
60
00
60
60
60
C0
ENDCHAR
STARTCHAR Rcaron
ENCODING 344
SWIDTH 620 0
DWIDTH 10 0
BBX 8 15 1 0
BITMAP
6E
3C
18
00
FC
FF
C3
C3
C3
FF
FE
C6
C6
C7
C3
ENDCHAR
STARTCHAR rcaron
ENCODING 345
SWIDTH 372 0
DWIDTH 6 0
BBX 6 12 0 0
BITMAP
D8
70
30
00
6C
7C
70
60
60
60
60
60
ENDCHAR
STARTCHAR Sacute
ENCODING 346
SWIDTH 544 0
DWIDTH 9 0
BBX 7 15 1 0
BITMAP
0C
7C
30
00
7E
FE
C0
C0
F0
7C
1E
06
06
FE
FC
ENDCHAR
STARTCHAR sacute
ENCODING 347
SWIDTH 472 0
DWIDTH 8 0
BBX 6 12 1 0
BITMAP
18
F8
60
00
FC
FC
C0
F8
7C
0C
FC
F8
ENDCHAR
STARTCHAR Scircumflex
ENCODING 348
SWIDTH 544 0
DWIDTH 9 0
BBX 7 15 1 0
BITMAP
30
78
EE
00
7E
FE
C0
C0
F0
7C
1E
06
06
FE
FC
ENDCHAR
STARTCHAR scircumflex
ENCODING 349
SWIDTH 472 0
DWIDTH 8 0
BBX 6 12 1 0
BITMAP
30
70
DC
00
FC
FC
C0
F8
7C
0C
FC
F8
ENDCHAR
STARTCHAR Scedilla
ENCODING 350
SWIDTH 544 0
DWIDTH 9 0
BBX 7 15 1 -4
BITMAP
7E
FE
C0
C0
F0
7C
1E
06
06
FE
FC
10
1C
1C
18
ENDCHAR
STARTCHAR scedilla
ENCODING 351
SWIDTH 472 0
DWIDTH 8 0
BBX 6 12 1 -4
BITMAP
FC
FC
C0
F8
7C
0C
FC
F8
20
38
38
30
ENDCHAR
STARTCHAR Scaron
ENCODING 352
SWIDTH 544 0
DWIDTH 9 0
BBX 7 15 1 0
BITMAP
6E
3C
18
00
7E
FE
C0
C0
F0
7C
1E
06
06
FE
FC
ENDCHAR
STARTCHAR scaron
ENCODING 353
SWIDTH 472 0
DWIDTH 8 0
BBX 6 12 1 0
BITMAP
CC
78
30
00
FC
FC
C0
F8
7C
0C
FC
F8
ENDCHAR
STARTCHAR Tcedilla
ENCODING 354
SWIDTH 0 0
DWIDTH 0 0
BBX 1 1 0 0
BITMAP
00
ENDCHAR
STARTCHAR tcedilla
ENCODING 355
SWIDTH 364 0
DWIDTH 6 0
BBX 5 14 0 -4
BITMAP
60
60
F8
F8
60
60
60
60
78
38
20
30
78
70
ENDCHAR
STARTCHAR Tcaron
ENCODING 356
SWIDTH 526 0
DWIDTH 8 0
BBX 8 15 0 0
BITMAP
76
3C
18
00
FF
FF
18
18
18
18
18
18
18
18
18
ENDCHAR
STARTCHAR tcaron
ENCODING 357
SWIDTH 487 0
DWIDTH 8 0
BBX 8 11 0 0
BITMAP
03
63
63
FB
F8
60
60
60
60
78
38
ENDCHAR
STARTCHAR Tbar
ENCODING 358
SWIDTH 528 0
DWIDTH 8 0
BBX 8 11 0 0
BITMAP
FF
FF
18
18
18
7F
7F
18
18
18
18
ENDCHAR
STARTCHAR tbar
ENCODING 359
SWIDTH 365 0
DWIDTH 6 0
BBX 5 10 0 0
BITMAP
60
60
F8
F8
60
78
78
60
78
38
ENDCHAR
STARTCHAR Utilde
ENCODING 360
SWIDTH 654 0
DWIDTH 10 0
BBX 8 15 1 0
BITMAP
32
7E
4C
00
C3
C3
C3
C3
C3
C3
C3
C3
E3
7F
7E
ENDCHAR
STARTCHAR utilde
ENCODING 361
SWIDTH 553 0
DWIDTH 9 0
BBX 7 12 1 0
BITMAP
24
7C
48
00
C6
C6
C6
C6
C6
C6
FE
7E
ENDCHAR
STARTCHAR Umacron
ENCODING 362
SWIDTH 654 0
DWIDTH 10 0
BBX 8 14 1 0
BITMAP
3E
00
00
C3
C3
C3
C3
C3
C3
C3
C3
E3
7F
7E
ENDCHAR
STARTCHAR umacron
ENCODING 363
SWIDTH 553 0
DWIDTH 9 0
BBX 7 11 1 0
BITMAP
7C
00
00
C6
C6
C6
C6
C6
C6
FE
7E
ENDCHAR
STARTCHAR Ubreve
ENCODING 364
SWIDTH 654 0
DWIDTH 10 0
BBX 8 15 1 0
BITMAP
66
3E
1C
00
C3
C3
C3
C3
C3
C3
C3
C3
E3
7F
7E
ENDCHAR
STARTCHAR ubreve
ENCODING 365
SWIDTH 553 0
DWIDTH 9 0
BBX 7 12 1 0
BITMAP
4C
7C
38
00
C6
C6
C6
C6
C6
C6
FE
7E
ENDCHAR
STARTCHAR Uring
ENCODING 366
SWIDTH 654 0
DWIDTH 10 0
BBX 8 15 1 0
BITMAP
3C
26
3C
08
C3
C3
C3
C3
C3
C3
C3
C3
E3
7F
7E
ENDCHAR
STARTCHAR uring
ENCODING 367
SWIDTH 553 0
DWIDTH 9 0
BBX 7 12 1 0
BITMAP
38
28
28
10
C6
C6
C6
C6
C6
C6
FE
7E
ENDCHAR
STARTCHAR Uhungarumlaut
ENCODING 368
SWIDTH 654 0
DWIDTH 10 0
BBX 8 16 1 0
BITMAP
24
37
36
66
00
C3
C3
C3
C3
C3
C3
C3
C3
E3
7F
7E
ENDCHAR
STARTCHAR uhungarumlaut
ENCODING 369
SWIDTH 553 0
DWIDTH 9 0
BBX 7 13 1 0
BITMAP
26
76
6C
44
00
C6
C6
C6
C6
C6
C6
FE
7E
ENDCHAR
STARTCHAR Uogonek
ENCODING 370
SWIDTH 656 0
DWIDTH 11 0
BBX 8 14 1 -3
BITMAP
C3
C3
C3
C3
C3
C3
C3
C3
E3
7F
7E
18
18
1C
ENDCHAR
STARTCHAR uogonek
ENCODING 371
SWIDTH 553 0
DWIDTH 9 0
BBX 7 11 1 -3
BITMAP
C6
C6
C6
C6
C6
C6
FE
7E
0C
0C
0E
ENDCHAR
STARTCHAR Wcircumflex
ENCODING 372
SWIDTH 930 0
DWIDTH 15 0
BBX 15 15 0 0
BITMAP
0380
0380
0EE0
0000
E38E
638C
638C
668C
66CC
66DC
36D8
34D8
3C78
3C78
3C78
ENDCHAR
STARTCHAR wcircumflex
ENCODING 373
SWIDTH 772 0
DWIDTH 12 0
BBX 12 12 0 0
BITMAP
0600
0700
1D80
0000
E630
6730
6760
6F60
6F60
6D60
3DE0
39E0
ENDCHAR
STARTCHAR Ycircumflex
ENCODING 374
SWIDTH 557 0
DWIDTH 9 0
BBX 9 15 0 0
BITMAP
1C00
1C00
7700
0000
E380
6300
7700
3600
3E00
1C00
1C00
1C00
1C00
1C00
1C00
ENDCHAR
STARTCHAR ycircumflex
ENCODING 375
SWIDTH 500 0
DWIDTH 8 0
BBX 8 15 0 -3
BITMAP
18
3C
66
00
C3
66
66
66
66
3C
3C
3C
0C
18
18
ENDCHAR
STARTCHAR Ydieresis
ENCODING 376
SWIDTH 557 0
DWIDTH 9 0
BBX 9 14 0 0
BITMAP
3600
3600
0000
E380
6300
7700
3600
3E00
1C00
1C00
1C00
1C00
1C00
1C00
ENDCHAR
STARTCHAR Zacute
ENCODING 377
SWIDTH 532 0
DWIDTH 9 0
BBX 7 15 1 0
BITMAP
18
7C
60
00
FE
FE
0E
1C
18
38
70
60
E0
FE
FE
ENDCHAR
STARTCHAR zacute
ENCODING 378
SWIDTH 454 0
DWIDTH 7 0
BBX 6 12 1 0
BITMAP
18
F8
40
00
FC
FC
18
30
70
E0
FC
FC
ENDCHAR
STARTCHAR Zdotaccent
ENCODING 379
SWIDTH 532 0
DWIDTH 9 0
BBX 7 14 1 0
BITMAP
30
30
00
FE
FE
0E
1C
18
38
70
60
E0
FE
FE
ENDCHAR
STARTCHAR zdotaccent
ENCODING 380
SWIDTH 454 0
DWIDTH 7 0
BBX 6 11 1 0
BITMAP
30
30
00
FC
FC
18
30
70
E0
FC
FC
ENDCHAR
STARTCHAR Zcaron
ENCODING 381
SWIDTH 532 0
DWIDTH 9 0
BBX 7 15 1 0
BITMAP
EC
78
30
00
FE
FE
0E
1C
18
38
70
60
E0
FE
FE
ENDCHAR
STARTCHAR zcaron
ENCODING 382
SWIDTH 454 0
DWIDTH 7 0
BBX 6 12 1 0
BITMAP
DC
70
30
00
FC
FC
18
30
70
E0
FC
FC
ENDCHAR
STARTCHAR florin
ENCODING 402
SWIDTH 560 0
DWIDTH 9 0
BBX 6 15 1 -4
BITMAP
3C
3C
30
7C
7C
30
30
30
30
30
30
30
30
F0
E0
ENDCHAR
STARTCHAR Aringacute
ENCODING 506
SWIDTH 602 0
DWIDTH 10 0
BBX 9 17 0 0
BITMAP
0200
1E00
3C00
0800
1E00
3200
1E00
3E00
3600
3300
3300
3300
6300
7F80
7F80
6180
E180
ENDCHAR
STARTCHAR aringacute
ENCODING 507
SWIDTH 511 0
DWIDTH 8 0
BBX 8 15 0 0
BITMAP
0C
3C
20
18
24
3C
18
7C
7E
06
3E
7E
E6
7E
7F
ENDCHAR
STARTCHAR AEacute
ENCODING 508
SWIDTH 872 0
DWIDTH 14 0
BBX 13 15 0 0
BITMAP
00C0
03E0
0300
0000
1FF8
1FF8
3B00
3300
33F0
33F0
7300
7F00
7F00
63F8
E3F8
ENDCHAR
STARTCHAR aeacute
ENCODING 509
SWIDTH 784 0
DWIDTH 13 0
BBX 12 12 0 0
BITMAP
0100
0F80
0C00
0000
7FE0
7FF0
0630
3FF0
7FF0
E600
7FF0
7FF0
ENDCHAR
STARTCHAR Oslashacute
ENCODING 510
SWIDTH 654 0
DWIDTH 10 0
BBX 9 17 1 -2
BITMAP
0C00
3C00
3100
0300
3F00
7F00
E700
CF80
CF80
DB80
DB80
F380
F300
7F00
7E00
4000
C000
ENDCHAR
STARTCHAR oslashacute
ENCODING 511
SWIDTH 532 0
DWIDTH 9 0
BBX 7 14 1 -2
BITMAP
08
7C
64
0C
7C
FC
D6
D6
F6
E6
FC
7C
40
C0
ENDCHAR
STARTCHAR Scommaaccent
ENCODING 536
SWIDTH 544 0
DWIDTH 9 0
BBX 7 16 1 -5
BITMAP
7E
FE
C0
C0
F0
7C
1E
06
06
FE
FC
00
38
30
30
30
ENDCHAR
STARTCHAR scommaaccent
ENCODING 537
SWIDTH 472 0
DWIDTH 8 0
BBX 7 13 0 -5
BITMAP
7E
7E
60
7C
3E
06
7E
7C
00
E0
C0
C0
C0
ENDCHAR
STARTCHAR Tcommaaccent
ENCODING 538
SWIDTH 526 0
DWIDTH 8 0
BBX 8 16 0 -5
BITMAP
FF
FF
18
18
18
18
18
18
18
18
18
00
0C
18
18
18
ENDCHAR
STARTCHAR tcommaaccent
ENCODING 539
SWIDTH 364 0
DWIDTH 6 0
BBX 5 15 0 -5
BITMAP
60
60
F8
F8
60
60
60
60
78
38
00
60
60
C0
C0
ENDCHAR
STARTCHAR circumflex
ENCODING 710
SWIDTH 268 0
DWIDTH 4 0
BBX 5 3 0 9
BITMAP
60
70
D8
ENDCHAR
STARTCHAR caron
ENCODING 711
SWIDTH 268 0
DWIDTH 4 0
BBX 5 3 0 9
BITMAP
D8
70
20
ENDCHAR
STARTCHAR breve
ENCODING 728
SWIDTH 268 0
DWIDTH 4 0
BBX 5 3 0 9
BITMAP
98
F8
70
ENDCHAR
STARTCHAR dotaccent
ENCODING 729
SWIDTH 268 0
DWIDTH 4 0
BBX 2 2 1 9
BITMAP
C0
C0
ENDCHAR
STARTCHAR ring
ENCODING 730
SWIDTH 268 0
DWIDTH 4 0
BBX 4 4 0 8
BITMAP
70
D0
F0
60
ENDCHAR
STARTCHAR ogonek
ENCODING 731
SWIDTH 474 0
DWIDTH 8 0
BBX 4 3 3 -3
BITMAP
60
E0
70
ENDCHAR
STARTCHAR tilde
ENCODING 732
SWIDTH 268 0
DWIDTH 4 0
BBX 5 3 0 9
BITMAP
48
F8
90
ENDCHAR
STARTCHAR hungarumlaut
ENCODING 733
SWIDTH 268 0
DWIDTH 4 0
BBX 7 4 -1 9
BITMAP
24
7E
FC
48
ENDCHAR
STARTCHAR pi
ENCODING 960
SWIDTH 560 0
DWIDTH 9 0
BBX 8 8 0 0
BITMAP
FF
FF
36
36
76
76
67
63
ENDCHAR
STARTCHAR Wgrave
ENCODING 7808
SWIDTH 930 0
DWIDTH 15 0
BBX 15 15 0 0
BITMAP
0200
07C0
00C0
0000
E38E
638C
638C
668C
66CC
66DC
36D8
34D8
3C78
3C78
3C78
ENDCHAR
STARTCHAR wgrave
ENCODING 7809
SWIDTH 772 0
DWIDTH 12 0
BBX 12 12 0 0
BITMAP
0C00
0F00
0300
0000
E630
6730
6760
6F60
6F60
6D60
3DE0
39E0
ENDCHAR
STARTCHAR Wacute
ENCODING 7810
SWIDTH 930 0
DWIDTH 15 0
BBX 15 15 0 0
BITMAP
00C0
07C0
0300
0000
E38E
638C
638C
668C
66CC
66DC
36D8
34D8
3C78
3C78
3C78
ENDCHAR
STARTCHAR wacute
ENCODING 7811
SWIDTH 772 0
DWIDTH 12 0
BBX 12 12 0 0
BITMAP
0100
0F80
0C00
0000
E630
6730
6760
6F60
6F60
6D60
3DE0
39E0
ENDCHAR
STARTCHAR Wdieresis
ENCODING 7812
SWIDTH 930 0
DWIDTH 15 0
BBX 15 14 0 0
BITMAP
06C0
06C0
0000
E38E
638C
638C
668C
66CC
66DC
36D8
34D8
3C78
3C78
3C78
ENDCHAR
STARTCHAR wdieresis
ENCODING 7813
SWIDTH 772 0
DWIDTH 12 0
BBX 12 12 0 0
BITMAP
1D80
1D80
0000
0000
E630
6730
6760
6F60
6F60
6D60
3DE0
39E0
ENDCHAR
STARTCHAR uni1EAB
ENCODING 7851
SWIDTH 511 0
DWIDTH 8 0
BBX 8 14 0 0
BITMAP
7C
7C
00
38
7C
00
7C
7E
06
3E
7E
E6
7E
7F
ENDCHAR
STARTCHAR uni1EB0
ENCODING 7856
SWIDTH 600 0
DWIDTH 10 0
BBX 9 18 0 0
BITMAP
2000
3C00
1C00
0000
3300
3E00
0800
1E00
3E00
3600
3700
3300
7300
6300
7F80
7F80
6180
E180
ENDCHAR
STARTCHAR uni1EC5
ENCODING 7877
SWIDTH 511 0
DWIDTH 8 0
BBX 7 14 1 0
BITMAP
FC
78
00
30
7C
00
78
FC
CE
FE
FC
C0
FC
7C
ENDCHAR
STARTCHAR uni1ED7
ENCODING 7895
SWIDTH 532 0
DWIDTH 9 0
BBX 7 14 1 0
BITMAP
FC
78
00
38
6C
00
7C
FC
C6
C6
C6
C6
FC
7C
ENDCHAR
STARTCHAR Ygrave
ENCODING 7922
SWIDTH 557 0
DWIDTH 9 0
BBX 9 15 0 0
BITMAP
1000
3E00
0600
0000
E380
6300
7700
3600
3E00
1C00
1C00
1C00
1C00
1C00
1C00
ENDCHAR
STARTCHAR ygrave
ENCODING 7923
SWIDTH 500 0
DWIDTH 8 0
BBX 8 15 0 -3
BITMAP
20
7C
0C
00
C3
66
66
66
66
3C
3C
3C
0C
18
18
ENDCHAR
STARTCHAR uni1EF8
ENCODING 7928
SWIDTH 541 0
DWIDTH 9 0
BBX 9 15 0 0
BITMAP
1200
3E00
2400
0000
E380
6300
7600
3600
3C00
1C00
1800
1800
1800
1800
1800
ENDCHAR
STARTCHAR uni1EF9
ENCODING 7929
SWIDTH 500 0
DWIDTH 8 0
BBX 8 15 0 -3
BITMAP
22
7E
4C
00
C3
66
66
66
66
3C
3C
3C
0C
18
18
ENDCHAR
STARTCHAR endash
ENCODING 8211
SWIDTH 614 0
DWIDTH 10 0
BBX 8 2 1 3
BITMAP
FF
FF
ENDCHAR
STARTCHAR emdash
ENCODING 8212
SWIDTH 1114 0
DWIDTH 18 0
BBX 16 2 1 3
BITMAP
FFFF
FFFF
ENDCHAR
STARTCHAR quoteleft
ENCODING 8216
SWIDTH 259 0
DWIDTH 4 0
BBX 3 4 1 7
BITMAP
60
C0
C0
C0
ENDCHAR
STARTCHAR quoteright
ENCODING 8217
SWIDTH 254 0
DWIDTH 4 0
BBX 3 4 1 7
BITMAP
E0
C0
C0
80
ENDCHAR
STARTCHAR quotesinglbase
ENCODING 8218
SWIDTH 256 0
DWIDTH 4 0
BBX 3 4 0 -2
BITMAP
60
60
40
C0
ENDCHAR
STARTCHAR quotedblleft
ENCODING 8220
SWIDTH 443 0
DWIDTH 7 0
BBX 6 4 1 7
BITMAP
6C
D8
D8
F8
ENDCHAR
STARTCHAR quotedblright
ENCODING 8221
SWIDTH 439 0
DWIDTH 7 0
BBX 6 4 1 7
BITMAP
FC
D8
D8
90
ENDCHAR
STARTCHAR quotedblbase
ENCODING 8222
SWIDTH 421 0
DWIDTH 7 0
BBX 6 4 0 -2
BITMAP
6C
6C
D8
D8
ENDCHAR
STARTCHAR dagger
ENCODING 8224
SWIDTH 480 0
DWIDTH 8 0
BBX 7 12 0 -1
BITMAP
18
18
18
FE
FE
18
18
18
18
18
18
18
ENDCHAR
STARTCHAR daggerdbl
ENCODING 8225
SWIDTH 512 0
DWIDTH 8 0
BBX 6 12 1 -1
BITMAP
30
30
30
FC
FC
30
30
FC
FC
30
30
30
ENDCHAR
STARTCHAR bullet
ENCODING 8226
SWIDTH 450 0
DWIDTH 7 0
BBX 4 4 2 2
BITMAP
F0
F0
F0
F0
ENDCHAR
STARTCHAR ellipsis
ENCODING 8230
SWIDTH 766 0
DWIDTH 12 0
BBX 10 3 1 0
BITMAP
CCC0
CCC0
CCC0
ENDCHAR
STARTCHAR perthousand
ENCODING 8240
SWIDTH 845 0
DWIDTH 14 0
BBX 13 12 0 -1
BITMAP
6200
7600
D400
5400
7C00
0800
0800
1FF8
17E8
17F8
33B8
1000
ENDCHAR
STARTCHAR guilsinglleft
ENCODING 8249
SWIDTH 318 0
DWIDTH 5 0
BBX 3 7 1 0
BITMAP
20
60
C0
C0
E0
20
20
ENDCHAR
STARTCHAR guilsinglright
ENCODING 8250
SWIDTH 318 0
DWIDTH 5 0
BBX 3 6 1 1
BITMAP
80
C0
60
60
C0
80
ENDCHAR
STARTCHAR fraction
ENCODING 8260
SWIDTH 10 0
DWIDTH 0 0
BBX 8 11 -4 0
BITMAP
02
03
06
04
08
08
10
30
20
40
C0
ENDCHAR
STARTCHAR zerosuperior
ENCODING 8304
SWIDTH 280 0
DWIDTH 4 0
BBX 4 6 0 7
BITMAP
60
F0
D0
D0
F0
20
ENDCHAR
STARTCHAR foursuperior
ENCODING 8308
SWIDTH 280 0
DWIDTH 4 0
BBX 4 5 0 8
BITMAP
60
40
F0
F0
F0
ENDCHAR
STARTCHAR fivesuperior
ENCODING 8309
SWIDTH 280 0
DWIDTH 4 0
BBX 4 5 0 8
BITMAP
70
70
70
70
F0
ENDCHAR
STARTCHAR sixsuperior
ENCODING 8310
SWIDTH 280 0
DWIDTH 4 0
BBX 4 6 0 7
BITMAP
70
F0
F0
F0
70
20
ENDCHAR
STARTCHAR sevensuperior
ENCODING 8311
SWIDTH 280 0
DWIDTH 4 0
BBX 4 6 0 7
BITMAP
F0
F0
30
60
60
20
ENDCHAR
STARTCHAR eightsuperior
ENCODING 8312
SWIDTH 280 0
DWIDTH 4 0
BBX 4 6 0 7
BITMAP
70
F0
F0
F0
F0
20
ENDCHAR
STARTCHAR ninesuperior
ENCODING 8313
SWIDTH 280 0
DWIDTH 4 0
BBX 4 6 0 7
BITMAP
60
F0
F0
70
F0
20
ENDCHAR
STARTCHAR zeroinferior
ENCODING 8320
SWIDTH 280 0
DWIDTH 4 0
BBX 4 6 0 -2
BITMAP
20
F0
D0
D0
F0
60
ENDCHAR
STARTCHAR oneinferior
ENCODING 8321
SWIDTH 280 0
DWIDTH 4 0
BBX 4 5 0 -2
BITMAP
F0
70
30
30
30
ENDCHAR
STARTCHAR twoinferior
ENCODING 8322
SWIDTH 280 0
DWIDTH 4 0
BBX 4 6 0 -2
BITMAP
60
F0
30
60
F0
F0
ENDCHAR
STARTCHAR threeinferior
ENCODING 8323
SWIDTH 280 0
DWIDTH 4 0
BBX 4 6 0 -2
BITMAP
60
F0
70
70
F0
E0
ENDCHAR
STARTCHAR fourinferior
ENCODING 8324
SWIDTH 280 0
DWIDTH 4 0
BBX 4 5 0 -2
BITMAP
60
50
F0
F0
30
ENDCHAR
STARTCHAR fiveinferior
ENCODING 8325
SWIDTH 280 0
DWIDTH 4 0
BBX 4 5 0 -2
BITMAP
70
E0
F0
F0
E0
ENDCHAR
STARTCHAR sixinferior
ENCODING 8326
SWIDTH 280 0
DWIDTH 4 0
BBX 4 6 0 -2
BITMAP
20
F0
F0
F0
F0
60
ENDCHAR
STARTCHAR seveninferior
ENCODING 8327
SWIDTH 280 0
DWIDTH 4 0
BBX 4 5 0 -2
BITMAP
F0
30
20
60
60
ENDCHAR
STARTCHAR eightinferior
ENCODING 8328
SWIDTH 280 0
DWIDTH 4 0
BBX 4 6 0 -2
BITMAP
60
F0
F0
F0
F0
70
ENDCHAR
STARTCHAR nineinferior
ENCODING 8329
SWIDTH 280 0
DWIDTH 4 0
BBX 4 6 0 -2
BITMAP
20
F0
F0
70
F0
E0
ENDCHAR
STARTCHAR Euro
ENCODING 8364
SWIDTH 560 0
DWIDTH 9 0
BBX 8 11 0 0
BITMAP
1F
3F
30
70
FE
70
FE
FE
30
3F
1F
ENDCHAR
STARTCHAR trademark
ENCODING 8482
SWIDTH 660 0
DWIDTH 11 0
BBX 9 5 1 5
BITMAP
ED80
6F80
6F80
6B80
6980
ENDCHAR
STARTCHAR Omega
ENCODING 8486
SWIDTH 560 0
DWIDTH 9 0
BBX 7 11 1 0
BITMAP
38
FE
C6
C6
C6
C6
C6
C6
6C
EE
EE
ENDCHAR
STARTCHAR partialdiff
ENCODING 8706
SWIDTH 560 0
DWIDTH 9 0
BBX 8 11 0 0
BITMAP
7E
6F
03
03
3F
7F
63
E3
63
7E
3E
ENDCHAR
STARTCHAR Delta
ENCODING 8710
SWIDTH 560 0
DWIDTH 9 0
BBX 7 11 1 0
BITMAP
38
7C
6C
6C
6C
6C
C6
C6
C6
FE
FE
ENDCHAR
STARTCHAR product
ENCODING 8719
SWIDTH 560 0
DWIDTH 9 0
BBX 8 15 0 -3
BITMAP
FF
FF
77
77
77
77
77
77
77
77
77
77
77
77
77
ENDCHAR
STARTCHAR summation
ENCODING 8721
SWIDTH 560 0
DWIDTH 9 0
BBX 8 15 0 -3
BITMAP
FF
FF
60
30
38
18
0C
0C
1C
18
30
70
60
FF
FF
ENDCHAR
STARTCHAR minus
ENCODING 8722
SWIDTH 560 0
DWIDTH 9 0
BBX 7 2 1 3
BITMAP
FE
FE
ENDCHAR
STARTCHAR radical
ENCODING 8730
SWIDTH 560 0
DWIDTH 9 0
BBX 9 15 0 -2
BITMAP
0180
0180
0180
0300
0300
0300
E300
E300
6600
6600
7600
3600
3400
3C00
3C00
ENDCHAR
STARTCHAR infinity
ENCODING 8734
SWIDTH 560 0
DWIDTH 9 0
BBX 9 5 0 2
BITMAP
7700
FF00
C980
7F00
7700
ENDCHAR
STARTCHAR integral
ENCODING 8747
SWIDTH 560 0
DWIDTH 9 0
BBX 5 16 2 -3
BITMAP
10
38
70
70
70
70
70
70
70
70
70
70
70
70
E0
E0
ENDCHAR
STARTCHAR approxequal
ENCODING 8776
SWIDTH 560 0
DWIDTH 9 0
BBX 7 6 1 1
BITMAP
72
FE
8C
00
FE
FE
ENDCHAR
STARTCHAR notequal
ENCODING 8800
SWIDTH 560 0
DWIDTH 9 0
BBX 7 10 1 -1
BITMAP
0C
0C
FE
FE
18
30
FE
FE
60
40
ENDCHAR
STARTCHAR lessequal
ENCODING 8804
SWIDTH 560 0
DWIDTH 9 0
BBX 7 8 1 0
BITMAP
0E
7E
E0
FE
1E
02
FE
FE
ENDCHAR
STARTCHAR greaterequal
ENCODING 8805
SWIDTH 560 0
DWIDTH 9 0
BBX 7 8 1 0
BITMAP
E0
FC
0E
FE
F0
80
FE
FE
ENDCHAR
STARTCHAR lozenge
ENCODING 9674
SWIDTH 560 0
DWIDTH 9 0
BBX 7 11 1 0
BITMAP
38
38
6C
6C
C6
C6
C6
EC
6C
7C
38
ENDCHAR
STARTCHAR dotlessj
ENCODING 63166
SWIDTH 259 0
DWIDTH 4 0
BBX 4 12 -1 -4
BITMAP
30
30
30
30
30
30
30
30
30
70
E0
40
ENDCHAR
STARTCHAR commaaccent
ENCODING 63171
SWIDTH 170 0
DWIDTH 3 0
BBX 3 4 0 -5
BITMAP
60
C0
C0
C0
ENDCHAR
STARTCHAR .notdef
ENCODING -1
SWIDTH 235 0
DWIDTH 4 0
BBX 1 1 0 0
BITMAP
00
ENDCHAR
STARTCHAR .null
ENCODING -1
SWIDTH 0 0
DWIDTH 0 0
BBX 1 1 0 0
BITMAP
00
ENDCHAR
STARTCHAR nonmarkingreturn
ENCODING -1
SWIDTH 333 0
DWIDTH 5 0
BBX 1 1 0 0
BITMAP
00
ENDCHAR
STARTCHAR questiondown.cap
ENCODING -1
SWIDTH 425 0
DWIDTH 7 0
BBX 6 11 0 0
BITMAP
18
18
18
00
18
38
70
E0
E0
7C
7C
ENDCHAR
STARTCHAR endash.cap
ENCODING -1
SWIDTH 618 0
DWIDTH 10 0
BBX 8 2 1 4
BITMAP
FF
FF
ENDCHAR
STARTCHAR emdash.cap
ENCODING -1
SWIDTH 1118 0
DWIDTH 18 0
BBX 16 2 1 4
BITMAP
FFFF
FFFF
ENDCHAR
STARTCHAR periodcentered.cap
ENCODING -1
SWIDTH 256 0
DWIDTH 4 0
BBX 2 3 1 4
BITMAP
C0
C0
C0
ENDCHAR
STARTCHAR exclamdown.cap
ENCODING -1
SWIDTH 280 0
DWIDTH 4 0
BBX 2 11 1 0
BITMAP
C0
C0
C0
00
C0
C0
C0
C0
C0
C0
C0
ENDCHAR
STARTCHAR parenleft.cap
ENCODING -1
SWIDTH 308 0
DWIDTH 5 0
BBX 4 14 1 -2
BITMAP
70
60
E0
C0
C0
C0
C0
C0
C0
C0
E0
60
60
70
ENDCHAR
STARTCHAR parenright.cap
ENCODING -1
SWIDTH 308 0
DWIDTH 5 0
BBX 4 14 0 -1
BITMAP
E0
60
60
70
30
30
30
30
30
30
30
70
60
E0
ENDCHAR
STARTCHAR bracketleft.cap
ENCODING -1
SWIDTH 355 0
DWIDTH 6 0
BBX 4 13 1 -1
BITMAP
F0
C0
C0
C0
C0
C0
C0
C0
C0
C0
C0
C0
F0
ENDCHAR
STARTCHAR bracketright.cap
ENCODING -1
SWIDTH 355 0
DWIDTH 6 0
BBX 4 13 1 -1
BITMAP
F0
70
70
70
70
70
70
70
70
70
70
70
F0
ENDCHAR
STARTCHAR braceleft.cap
ENCODING -1
SWIDTH 361 0
DWIDTH 6 0
BBX 5 15 0 -2
BITMAP
08
38
30
30
30
30
70
C0
70
30
30
30
30
38
08
ENDCHAR
STARTCHAR braceright.cap
ENCODING -1
SWIDTH 362 0
DWIDTH 6 0
BBX 5 15 1 -2
BITMAP
80
C0
E0
60
60
60
70
38
70
60
60
60
60
E0
80
ENDCHAR
ENDFONT
